<?xml version="1.0" encoding="utf-8"?>
<!-- Generator: Adobe Illustrator 16.0.0, SVG Export Plug-In . SVG Version: 6.00 Build 0)  -->
<!DOCTYPE svg PUBLIC "-//W3C//DTD SVG 1.1//EN" "http://www.w3.org/Graphics/SVG/1.1/DTD/svg11.dtd">
<svg version="1.1" id="图层_1" xmlns="http://www.w3.org/2000/svg" xmlns:xlink="http://www.w3.org/1999/xlink" x="0px" y="0px"
	 width="612px" height="612px" viewBox="0 87.5 612 612" enable-background="new 0 87.5 612 612" xml:space="preserve">
<rect x="0" y="87.5" fill="#D6D8D8" width="612" height="612"/>
<path fill="#67BFBD" d="M534.956,235.406l-71.76,114.05c-6.575,10.45-14.651,9.175-17.685-4.15
	c-7.598-28.248-22.443-49.006-42.892-61.872c-18.629-11.721-42.17-17.653-54.178,1.431c-9.72,15.449,14.366,47.73,41.283,85.596
	c56.845,76.994,97.734,142.046,45.987,224.29c-58.608,93.148-173.699,83.526-265.939,25.489
	c-57.707-36.309-106.938-90.118-129.586-146.864c-3.165-7.065-2.292-13.493,1.71-19.854l50.317-79.972
	c6.004-9.542,13.744-9.747,19.686,0.969c28.367,47.659,86.568,108.381,132.007,136.97c26.354,16.582,48.818,21.202,59.396,4.391
	c13.724-21.812-13.862-45.51-61.062-112.629c-55.063-82.85-62.518-139.55-25.923-197.71
	c52.319-83.152,158.213-100.247,255.452-39.065c23.174,14.581,44.178,31.602,61.598,48.271
	C540.235,220.968,539.817,227.682,534.956,235.406z"/>
</svg>
